# xmcd CD database file
#
# Track frame offsets:
#	150
#	13745
#	23830
#	38652
#	50420
#	66767
#	82192
#	97012
#	111872
#	126455
#	138332
#	147717
#	159285
#
# Disc length: 2311 seconds
#
# Revision: 0
# Processed by: cddbd v1.5.2PL0 Copyright (c) Steve Scherf et al.
# Submitted via: CDex 1.51
#
DISCID=b809050d
DTITLE=Sarah Vaughan - All Time Greatest Hits
DYEAR=1995
DGENRE=Jazz
TTITLE0=What A Difference A Day Makes
TTITLE1=Day In Day Out
TTITLE2=I'll Be Seeing You
TTITLE3=I Cried For You
TTITLE4=Poor Butterfly
TTITLE5=The More I See You
TTITLE6=It's You Or No One
TTITLE7=Somebody Else
TTITLE8=Penthouse Serenade
TTITLE9=Button Up Your Overcoat
TTITLE10=But Not For Me
TTITLE11=Just One Of Those Things
TTITLE12=On Green Dolphin Street
EXTD=YEAR: 1995
EXTT0=
EXTT1=
EXTT2=
EXTT3=
EXTT4=
EXTT5=
EXTT6=
EXTT7=
EXTT8=
EXTT9=
EXTT10=
EXTT11=
EXTT12=
PLAYORDER=
